<?xml version="1.0" standalone="no"?>
<!DOCTYPE svg PUBLIC "-//W3C//DTD SVG 1.1//EN" "http://www.w3.org/Graphics/SVG/1.1/DTD/svg11.dtd">
<svg width="100%" height="100%" viewBox="0 0 182 421" version="1.1" xmlns="http://www.w3.org/2000/svg" xmlns:xlink="http://www.w3.org/1999/xlink" xml:space="preserve" style="fill-rule:evenodd;clip-rule:evenodd;stroke-linecap:round;stroke-linejoin:round;stroke-miterlimit:1.41421;">
    <g id="Light">
        <path d="M43,295.5L103,295.5" style="fill:none;stroke-width:1px;stroke:rgb(61,65,67);"/>
        <path d="M43,344.5L103,344.5" style="fill:none;stroke-width:1px;stroke:rgb(61,65,67);"/>
        <g>
            <rect x="74" y="406" width="9" height="9" style="fill:white;stroke-width:1px;stroke-linecap:butt;stroke-miterlimit:4;stroke:rgb(132,137,140);"/>
            <rect x="63" y="406" width="9" height="9" style="fill:white;stroke-width:1px;stroke-linecap:butt;stroke-miterlimit:4;stroke:rgb(132,137,140);"/>
        </g>
        <text x="81.9989px" y="413.35px" style="font-family:Clear Sans;font-size:10px;fill:rgb(61,65,67);">+</text>
        <g transform="matrix(-1,0,0,1,90.5563,52.6468)">
            <text x="21.0222px" y="360.431px" style="font-family:Clear Sans;font-size:10px;fill:rgb(61,65,67);">- </text>
        </g>
        <g>
            <rect x="43" y="365" width="60" height="20" style="fill:rgb(181,216,246);"/>
            <text x="62.5574px" y="358.431px" style="font-family:Clear Sans;font-size:10px;fill:rgb(61,65,67);">#</text>
            <g transform="matrix(1,0,0,1,43.5279,13.4951)">
                <text x="19.677px" y="360.431px" style="font-family:Clear Sans;font-size:10px;fill:rgb(61,65,67);">B </text>
                <text x="19.5574px" y="368.431px" style="font-family:Clear Sans;font-size:10px;fill:rgb(61,65,67);">C</text>
            </g>
            <g transform="matrix(1,0,0,1,43,33.3721)">
                <text x="20.1824px" y="360.431px" style="font-family:Clear Sans;font-size:10px;fill:rgb(61,65,67);">F </text>
                <text x="19.5574px" y="368.431px" style="font-family:Clear Sans;font-size:10px;fill:rgb(61,65,67);">Q</text>
            </g>
            <text x="73.5574px" y="358.431px" style="font-family:Clear Sans;font-size:10px;fill:rgb(61,65,67);">Guide</text>
            <text x="73.5574px" y="378.431px" style="font-family:Clear Sans;font-size:10px;fill:rgb(61,65,67);">Back</text>
            <text x="73.5574px" y="398.431px" style="font-family:Clear Sans;font-size:10px;fill:rgb(61,65,67);">F<tspan x="78.6697px 84.3191px 87.9812px " y="398.431px 398.431px 398.431px ">ore</tspan></text>
        </g>
        <g>
            <path d="M49,399L57,399L57,391L49,391L49,399ZM49,379L57,379L57,371L49,371L49,379ZM49,359L57,359L57,351L49,351L49,359Z" style="fill:white;stroke-width:1px;stroke-linecap:butt;stroke-miterlimit:4;stroke:rgb(132,137,140);"/>
            <path d="M52.9378,398.038C52.7173,398.038 52.5083,397.937 52.3718,397.761L50.1513,394.908C49.9078,394.595 49.9643,394.146 50.2768,393.903C50.5893,393.659 51.0393,393.716 51.2823,394.028L52.8853,396.087L57.2993,388.826C57.5148,388.494 57.9588,388.4 58.2908,388.615C58.6223,388.831 58.7168,389.276 58.5013,389.607L53.5388,397.712C53.4123,397.906 53.1998,398.028 52.9678,398.038C52.9653,398.038 52.9628,398.038 52.9603,398.038L52.9453,398.038L52.9378,398.038ZM52.9378,378.038C52.7173,378.038 52.5083,377.937 52.3718,377.761L50.1513,374.908C49.9078,374.595 49.9643,374.146 50.2768,373.903C50.5893,373.659 51.0393,373.716 51.2823,374.028L52.8853,376.087L57.2993,368.826C57.5148,368.494 57.9588,368.4 58.2908,368.615C58.6223,368.831 58.7168,369.276 58.5013,369.607L53.5388,377.712C53.4123,377.906 53.1998,378.028 52.9678,378.038C52.9653,378.038 52.9628,378.038 52.9603,378.038L52.9453,378.038L52.9378,378.038ZM52.9378,358.038C52.7173,358.038 52.5083,357.937 52.3718,357.761L50.1513,354.908C49.9078,354.595 49.9643,354.146 50.2768,353.903C50.5893,353.659 51.0393,353.716 51.2823,354.028L52.8853,356.087L57.2993,348.826C57.5148,348.494 57.9588,348.4 58.2908,348.615C58.6223,348.831 58.7168,349.276 58.5013,349.607L53.5388,357.712C53.4123,357.906 53.1998,358.028 52.9678,358.038C52.9653,358.038 52.9628,358.038 52.9603,358.038L52.9453,358.038L52.9378,358.038Z" style="fill:rgb(61,65,67);stroke-width:0.31px;stroke-linecap:butt;stroke:rgb(61,65,67);"/>
        </g>
        <g>
            <g>
                <clipPath id="tag1">
                    <rect x="64.2679" y="303.268" width="17.4641" height="33.943"/>
                </clipPath>
                <g clip-path="url(#tag1)">
                    <g opacity="0.5">
                        <path d="M80,311.3C80,307.821 77.1794,305 73.7,305L72.3,305C68.8206,305 66,307.821 66,311.3L66,321.7C66,325.179 68.8206,328 72.3,328L73.7,328C77.1794,328 80,325.179 80,321.7L80,311.3Z" style="fill:white;stroke-width:1px;stroke:rgb(131,136,139);"/>
                        <g>
                            <clipPath id="tag2">
                                <path d="M80,311.3C80,307.821 77.1794,305 73.7,305L72.3,305C68.8206,305 66,307.821 66,311.3L66,321.7C66,325.179 68.8206,328 72.3,328L73.7,328C77.1794,328 80,325.179 80,321.7L80,311.3Z"/>
                            </clipPath>
                            <g clip-path="url(#tag2)">
                                <path d="M72,302.231C72,301.499 71.4066,300.906 70.6746,300.906L64.4894,300.906C63.7574,300.906 63.164,301.499 63.164,302.231L63.164,313.675C63.164,314.407 63.7574,315 64.4894,315L70.6746,315C71.4066,315 72,314.407 72,313.675L72,302.231Z" style="fill:rgb(189,192,193);stroke-width:1px;stroke:rgb(131,136,139);"/>
                                <path d="M83,302.406C83,301.577 82.3284,300.906 81.5,300.906L74.5,300.906C73.6716,300.906 73,301.577 73,302.406L73,313.5C73,314.328 73.6716,315 74.5,315L81.5,315C82.3284,315 83,314.328 83,313.5L83,302.406Z" style="fill:white;stroke-width:1px;stroke:rgb(131,136,139);"/>
                                <path d="M74,309.3C74,309.134 73.8657,309 73.7,309L72.3,309C72.1343,309 72,309.134 72,309.3L72,315.7C72,315.866 72.1343,316 72.3,316L73.7,316C73.8657,316 74,315.866 74,315.7L74,309.3Z" style="fill:rgb(189,192,193);stroke-width:1px;stroke:rgb(131,136,139);"/>
                            </g>
                        </g>
                        <g>
                            <path d="M70.4199,336.269C70.2604,336.542 70.0391,336.767 69.7559,336.945C69.4727,337.122 69.082,337.211 68.584,337.211C67.832,337.211 67.2656,336.984 66.8848,336.53C66.5039,336.076 66.3135,335.403 66.3135,334.511C66.3135,333.619 66.5023,332.943 66.8799,332.482C67.2575,332.021 67.8141,331.791 68.5498,331.791C69.3929,331.791 69.9935,332.104 70.3516,332.729L69.6631,333.148C69.5361,332.95 69.3872,332.795 69.2163,332.685C69.0454,332.574 68.82,332.519 68.54,332.519C68.0485,332.519 67.6994,332.697 67.4927,333.053C67.286,333.41 67.1826,333.902 67.1826,334.53C67.1826,335.009 67.2314,335.382 67.3291,335.648C67.4268,335.915 67.5789,336.12 67.7856,336.264C67.9924,336.407 68.2552,336.479 68.5742,336.479C68.8477,336.479 69.0706,336.427 69.2432,336.325C69.4157,336.222 69.5785,336.063 69.7314,335.849L70.4199,336.269Z" style="fill:rgb(132,137,140);fill-rule:nonzero;"/>
                            <path d="M74.1602,337.06C73.8346,337.16 73.5124,337.211 73.1934,337.211C72.8008,337.211 72.5072,337.074 72.281,336.801C72.0548,336.527 71.9918,336.098 71.9918,335.512L71.9918,332.641L71.2594,332.641L71.2594,331.938L71.9918,331.938L71.9918,330.512L72.8317,330.512L72.8317,331.938L73.998,331.938L73.998,332.641L72.8317,332.641L72.8317,335.351C72.8317,335.764 72.823,336.06 72.906,336.239C72.989,336.418 73.0696,336.508 73.252,336.508C73.4993,336.508 73.7288,336.462 73.9404,336.371L74.1602,337.06Z" style="fill:rgb(132,137,140);fill-rule:nonzero;"/>
                            <path d="M77.9297,332.768C77.8385,332.729 77.7083,332.709 77.5391,332.709C77.2884,332.709 77.0467,332.767 76.814,332.882C76.5812,332.998 76.3102,333.21 76.001,333.52L76.001,337.06L75.1611,337.06L75.1611,331.938L76.001,331.938L76.001,332.768C76.2354,332.53 76.4819,332.319 76.7407,332.135C76.9995,331.951 77.2868,331.859 77.6025,331.859C77.8141,331.859 77.9834,331.894 78.1104,331.962L77.9297,332.768Z" style="fill:rgb(132,137,140);fill-rule:nonzero;"/>
                            <rect x="79.1602" y="329.789" width="0.839844" height="7.27051" style="fill:rgb(132,137,140);fill-rule:nonzero;"/>
                        </g>
                    </g>
                </g>
            </g>
            <rect x="52" y="306" width="9" height="7" style="fill:rgb(255,226,153);stroke-width:1px;stroke:rgb(61,65,67);"/>
            <g>
                <path d="M57,327L59,325C60.3497,325.463 61.3497,326.463 62,328L60,330L57,327Z" style="fill:rgb(224,82,84);stroke-width:1px;stroke:rgb(61,65,67);"/>
                <path d="M50.5,336.5L52,329C54.4412,329.001 55.4697,328.378 57,327C58.2626,327.563 59.2626,328.563 60,330C58.4672,331.512 57.853,332.542 58,335L50.5,336.5Z" style="fill:rgb(212,212,212);stroke-width:1px;stroke:rgb(61,65,67);"/>
                <path d="M55,332L50.5,336.5" style="fill:none;stroke-width:1px;stroke:rgb(61,65,67);"/>
                <circle cx="55" cy="332" r="1" style="fill:none;stroke-width:1px;stroke:rgb(61,65,67);"/>
            </g>
            <g>
                <path d="M89.5,317L89.5,309.5L95,304" style="fill:none;stroke-width:1px;stroke:rgb(61,65,67);"/>
                <rect x="88" y="308" width="3" height="3" style="fill:rgb(224,82,84);stroke-width:1px;stroke:rgb(61,65,67);"/>
            </g>
            <path d="M86,325L86,334.5L88.2576,332.381L91,337L93,336L90.2576,331.381L93,331L86,325Z" style="fill:white;stroke-width:1px;stroke:rgb(61,65,67);"/>
        </g>
        <g id="small">
            <rect x="27" y="364" width="9" height="7" style="fill:rgb(255,226,153);stroke-width:1px;stroke:rgb(61,65,67);"/>
            <path d="M10.5147,319.853L12.1088,323.983L16.5295,324.223L13.094,327.015L14.232,331.294L10.5147,328.889L6.79743,331.294L7.93544,327.015L4.5,324.223L8.92064,323.983L10.5147,319.853Z" style="fill:rgb(255,226,153);stroke-width:1px;stroke:rgb(61,65,67);"/>
            <circle cx="10.5" cy="346.5" r="5" style="fill:rgb(255,226,153);stroke-width:1px;stroke:rgb(61,65,67);"/>
            <path d="M10.5147,362.461L15.5295,366.105L13.614,372L7.41546,372L5.5,366.105L10.5147,362.461Z" style="fill:rgb(255,226,153);stroke-width:1px;stroke:rgb(61,65,67);"/>
            <g>
                <path d="M3.64785,216.553C3.54561,216.263 3.49,215.951 3.49,215.625C3.49,214.392 4.4899,213.392 5.72333,213.392C6.71008,213.392 7.51,214.192 7.51,215.179C7.51,215.968 6.87007,216.608 6.08067,216.608C5.80438,216.608 5.55097,216.51 5.35332,216.347" style="fill:none;stroke-width:1px;stroke:rgb(132,137,140);"/>
                <path d="M3.64785,237.553C3.54561,237.263 3.49,236.951 3.49,236.625C3.49,235.392 4.4899,234.392 5.72333,234.392C6.71008,234.392 7.51,235.192 7.51,236.179C7.51,236.968 6.87007,237.608 6.08067,237.608C5.80438,237.608 5.55097,237.51 5.35332,237.347" style="fill:none;stroke-width:1px;stroke:rgb(132,137,140);"/>
                <path d="M3.64785,258.553C3.54561,258.263 3.49,257.951 3.49,257.625C3.49,256.392 4.4899,255.392 5.72333,255.392C6.71008,255.392 7.51,256.192 7.51,257.179C7.51,257.968 6.87007,258.608 6.08067,258.608C5.80438,258.608 5.55097,258.51 5.35332,258.347" style="fill:none;stroke-width:1px;stroke:rgb(132,137,140);"/>
                <path d="M3.64785,279.553C3.54561,279.263 3.49,278.951 3.49,278.625C3.49,277.392 4.4899,276.392 5.72333,276.392C6.71008,276.392 7.51,277.192 7.51,278.179C7.51,278.968 6.87007,279.608 6.08067,279.608C5.80438,279.608 5.55097,279.51 5.35332,279.347" style="fill:none;stroke-width:1px;stroke:rgb(132,137,140);"/>
                <path d="M3.64785,300.553C3.54561,300.263 3.49,299.951 3.49,299.625C3.49,298.392 4.4899,297.392 5.72333,297.392C6.71008,297.392 7.51,298.192 7.51,299.179C7.51,299.968 6.87007,300.608 6.08067,300.608C5.80438,300.608 5.55097,300.51 5.35332,300.347" style="fill:none;stroke-width:1px;stroke:rgb(132,137,140);"/>
            </g>
            <g>
                <path d="M10.5,275.5C10.5,275.5 10.4833,280.764 10.4998,283.535C10.5166,286.348 9.45152,289.167 7.30464,291.314" style="fill:none;stroke-width:1px;stroke:rgb(61,65,67);"/>
                <path d="M12.8286,280.063L12.8286,281.606L10.5143,281.606L10.5143,285.463L12.8286,285.463L12.8286,287.006L8.97143,287.006L8.97143,280.063L12.8286,280.063Z" style="fill:rgb(224,82,84);stroke-width:1px;stroke:rgb(61,65,67);"/>
            </g>
            <g>
                <path d="M10.5,312.314C10.5,312.314 10.5167,307.05 10.5002,304.28C10.4834,301.466 11.5485,298.647 13.6954,296.5" style="fill:none;stroke-width:1px;stroke:rgb(61,65,67);"/>
                <path d="M8,307.751L8,306.208L10.3143,306.208L10.3143,302.351L8,302.351L8,300.808L11.8571,300.808L11.8571,307.751L8,307.751Z" style="fill:rgb(224,82,84);stroke-width:1px;stroke:rgb(61,65,67);"/>
            </g>
            <g>
                <path d="M12.3586,270C9.35858,265.858 9.35858,259.142 12.3586,255" style="fill:none;stroke-width:1px;stroke:rgb(61,65,67);"/>
                <path d="M13.1161,262.519L10.4645,259.867L7.81282,262.519L10.4645,265.171L13.1161,262.519Z" style="fill:rgb(224,82,84);stroke-width:1px;stroke:rgb(61,65,67);"/>
            </g>
            <g>
                <path d="M10.5,248L10.5,240.5L16,235" style="fill:none;stroke-width:1px;stroke:rgb(61,65,67);"/>
                <rect x="9" y="239" width="3" height="3" style="fill:rgb(224,82,84);stroke-width:1px;stroke:rgb(61,65,67);"/>
            </g>
            <g>
                <path d="M13.1421,226.989C9.28226,223.129 9.28226,216.871 13.1421,213.011" style="fill:none;stroke-width:1px;stroke:rgb(61,65,67);"/>
                <circle cx="10.5967" cy="220" r="2.09668" style="fill:rgb(224,82,84);stroke-width:1px;stroke:rgb(61,65,67);"/>
            </g>
            <g>
                <path d="M26,343.116C32.1491,342.411 35.8158,341.705 37,341C36.3113,344.667 35.8863,348.333 35.7249,352C36.0118,351.566 33.4236,351.132 27.9603,350.699C29.3568,348.171 28.7033,345.644 26,343.116Z" style="fill:rgb(167,207,163);fill-rule:nonzero;stroke-width:1px;stroke-linecap:butt;stroke:rgb(167,207,163);"/>
                <path d="M26,343.116C32.1491,342.411 35.8158,341.705 37,341C36.3113,344.667 35.8863,348.333 35.7249,352C36.0118,351.566 33.4236,351.132 27.9603,350.699C29.3568,348.171 28.7033,345.644 26,343.116Z" style="fill:rgb(167,207,163);fill-rule:nonzero;stroke-width:1px;stroke-linecap:butt;stroke-dasharray:0.3,1,1.7,0;stroke:rgb(61,65,67);"/>
            </g>
            <g>
                <path d="M31.5,331.237L26.5,328.38L26.5,322.665L31.5,325.523L31.5,331.237Z" style="fill:rgb(167,207,163);stroke-width:1px;stroke-linecap:butt;stroke:rgb(167,207,163);"/>
                <path d="M31.5,331.237L26.5,328.38L26.5,322.665L31.5,325.523L31.5,331.237Z" style="fill:rgb(167,207,163);stroke-width:1px;stroke-linecap:butt;stroke-dasharray:0.6,1,1.4,0;stroke:rgb(61,65,67);"/>
                <path d="M31.5,331.237L36.5,328.38L36.5,322.665L31.5,325.523L31.5,331.237Z" style="fill:rgb(167,207,163);stroke-width:1px;stroke-linecap:butt;stroke:rgb(167,207,163);"/>
                <path d="M31.5,331.237L36.5,328.38L36.5,322.665L31.5,325.523L31.5,331.237Z" style="fill:rgb(167,207,163);stroke-width:1px;stroke-linecap:butt;stroke-dasharray:0.6,1,1.4,0;stroke:rgb(61,65,67);"/>
                <path d="M31.5325,319.789L26.5,322.665L31.5,325.523L36.5,322.665L31.5325,319.789Z" style="fill:rgb(167,207,163);stroke-width:1px;stroke-linecap:butt;stroke:rgb(167,207,163);"/>
                <path d="M31.5325,319.789L26.5,322.665L31.5,325.523L36.5,322.665L31.5325,319.789Z" style="fill:rgb(167,207,163);stroke-width:1px;stroke-linecap:butt;stroke-dasharray:0.6,1,1.4,0;stroke:rgb(61,65,67);"/>
            </g>
            <g>
                <path d="M37,300L33.1538,300L27,309L30.8462,309L37,300Z" style="fill:rgb(167,207,163);stroke-width:1px;stroke-linecap:butt;stroke:rgb(167,207,163);"/>
                <path d="M37,300L33.1538,300L27,309L30.8462,309L37,300Z" style="fill:rgb(167,207,163);stroke-width:1px;stroke-linecap:butt;stroke-dasharray:2,1,0,0;stroke:rgb(61,65,67);"/>
                <rect x="27" y="300" width="3.84615" height="9" style="fill:rgb(167,207,163);stroke-width:1px;stroke:rgb(61,65,67);"/>
            </g>
            <g>
                <rect x="25" y="282" width="3" height="3" style="fill:rgb(167,207,163);stroke-width:1px;stroke:rgb(61,65,67);"/>
                <path d="M33,280L33,277L30,277L30,280L33,280Z" style="fill:rgb(167,207,163);stroke-width:1px;stroke:rgb(61,65,67);"/>
                <rect x="35" y="282" width="3" height="3" style="fill:rgb(167,207,163);stroke-width:1px;stroke-linecap:butt;stroke:rgb(167,207,163);"/>
                <rect x="35" y="282" width="3" height="3" style="fill:rgb(167,207,163);stroke-width:1px;stroke-linecap:butt;stroke-dasharray:2,1,0,0;stroke:rgb(61,65,67);"/>
                <path d="M33,290L33,287L30,287L30,290L33,290Z" style="fill:rgb(167,207,163);stroke-width:1px;stroke-linecap:butt;stroke:rgb(167,207,163);"/>
                <path d="M33,290L33,287L30,287L30,290L33,290Z" style="fill:rgb(167,207,163);stroke-width:1px;stroke-linecap:butt;stroke-dasharray:2,1,0,0;stroke:rgb(61,65,67);"/>
            </g>
            <g>
                <path d="M30.9171,256.5L25.5849,265.736L29.1371,267.786L34.4693,258.551L30.9171,256.5Z" style="fill:rgb(167,207,163);stroke-width:1px;stroke-linecap:butt;stroke:rgb(167,207,163);"/>
                <path d="M30.9171,256.5L25.5849,265.736L29.1371,267.786L34.4693,258.551L30.9171,256.5Z" style="fill:rgb(167,207,163);stroke-width:1px;stroke-linecap:butt;stroke-dasharray:2,1,0,0;stroke:rgb(61,65,67);"/>
                <rect x="26.3356" y="262.934" width="10.6644" height="4.10169" style="fill:rgb(167,207,163);stroke-width:1px;stroke:rgb(61,65,67);"/>
            </g>
            <g>
                <rect x="28" y="238" width="8" height="8" style="fill:rgb(167,207,163);stroke-width:1px;stroke-linecap:butt;stroke:rgb(167,207,163);"/>
                <rect x="28" y="238" width="8" height="8" style="fill:rgb(167,207,163);stroke-width:1px;stroke-linecap:butt;stroke-dasharray:2,1,0,0;stroke:rgb(61,65,67);"/>
                <rect x="26" y="236" width="5" height="5" style="fill:rgb(167,207,163);stroke-width:1px;stroke:rgb(61,65,67);"/>
            </g>
            <g>
                <path d="M28.1474,222.086L30.5026,213.728L32.2283,214.172L30.0583,222.169L28.1474,222.086Z" style="fill:rgb(102,114,204);stroke-width:1px;stroke:rgb(61,65,67);"/>
                <path d="M26.7444,227.092L28.1197,222.176L29.8569,222.66C28.1248,225.147 29.7711,226.465 26.7444,227.092Z" style="fill:rgb(212,212,212);stroke-width:1px;stroke:rgb(61,65,67);"/>
                <path d="M30.5026,227.5L32.7239,227.5" style="fill:none;stroke-width:1px;stroke:rgb(132,137,140);"/>
                <path d="M34.9451,227.5L37.1664,227.5" style="fill:none;stroke-width:1px;stroke:rgb(132,137,140);"/>
            </g>
            <g>
                <path d="M26.4282,204.554C26.8069,204.632 27.1355,204.809 27.5642,204.788C30.2358,204.659 29.9509,203.298 31.9429,203.232C34.0948,203.16 34.2252,204.114 35.8298,204.103" style="fill:none;stroke-width:1px;stroke:rgb(132,137,140);"/>
                <path d="M28.2278,200.846L35.0739,194C35.7458,194.169 36.2022,194.626 36.4431,195.369L29.597,202.215L28.2278,200.846Z" style="fill:rgb(224,82,84);stroke-width:1px;stroke:rgb(61,65,67);"/>
                <path d="M26.8586,203.585L28.2278,200.846C28.8539,201.112 29.2904,201.59 29.597,202.215L26.8586,203.585Z" style="fill:rgb(212,212,212);stroke-width:1px;stroke:rgb(61,65,67);"/>
            </g>
            <g>
                <path d="M23.0967,178.5L40.0967,178.5" style="fill:none;stroke-width:1px;stroke-linecap:butt;stroke-dasharray:1,1;stroke:rgb(132,137,140);"/>
                <path d="M31.5967,170L31.5967,187" style="fill:none;stroke-width:1px;stroke-linecap:butt;stroke-dasharray:1,1;stroke:rgb(132,137,140);"/>
                <path d="M34.4345,185.891C30.158,181.809 30.158,175.191 34.4345,171.109" style="fill:none;stroke-width:1px;stroke:rgb(61,65,67);"/>
                <path d="M34.1911,178.519L31.5778,175.906L28.9646,178.519L31.5778,181.132L34.1911,178.519Z" style="fill:rgb(224,82,84);stroke-width:1px;stroke:rgb(61,65,67);"/>
            </g>
            <g>
                <path d="M31.5,164.5C31.5,164.5 31.5148,159.84 31.5002,157.387C31.4853,154.896 32.4282,152.401 34.3288,150.5" style="fill:none;stroke-width:1px;stroke:rgb(61,65,67);"/>
                <path d="M34.5906,159.037L31.5,155.263L28.4094,159.037L34.5906,159.037Z" style="fill:rgb(224,82,84);stroke-width:1px;stroke:rgb(61,65,67);"/>
            </g>
            <g>
                <path d="M31.5,143.5L31.5,136L37,130.5" style="fill:none;stroke-width:1px;stroke:rgb(61,65,67);"/>
                <rect x="30" y="134.5" width="3" height="3" style="fill:rgb(224,82,84);stroke-width:1px;stroke:rgb(61,65,67);"/>
            </g>
            <g>
                <path d="M34.1421,122.489C30.2823,118.629 30.2823,112.371 34.1421,108.511" style="fill:none;stroke-width:1px;stroke:rgb(61,65,67);"/>
                <circle cx="31.5967" cy="115.5" r="2.09668" style="fill:rgb(224,82,84);stroke-width:1px;stroke:rgb(61,65,67);"/>
            </g>
            <g>
                <path d="M32.5,91L34.5,89C35.8497,89.4634 36.8497,90.4634 37.5,92L35.5,94L32.5,91Z" style="fill:rgb(224,82,84);stroke-width:1px;stroke:rgb(61,65,67);"/>
                <path d="M26,100.5L27.5,93C29.9412,93.0015 30.9697,92.3779 32.5,91C33.7626,91.5632 34.7626,92.5632 35.5,94C33.9672,95.512 33.353,96.5416 33.5,99L26,100.5Z" style="fill:rgb(212,212,212);stroke-width:1px;stroke:rgb(61,65,67);"/>
                <path d="M30.5,96L26,100.5" style="fill:none;stroke-width:1px;stroke:rgb(61,65,67);"/>
                <circle cx="30.5" cy="96" r="1" style="fill:none;stroke-width:1px;stroke:rgb(61,65,67);"/>
            </g>
            <g>
                <rect x="26" y="71" width="11" height="5" style="fill:white;stroke-width:1px;stroke:rgb(61,65,67);"/>
                <g>
                    <path d="M31.5,74L31.5,77" style="fill:white;stroke-width:1px;stroke-linecap:butt;stroke:rgb(61,65,67);"/>
                    <path d="M27.5,74L27.5,77" style="fill:white;stroke-width:1px;stroke-linecap:butt;stroke:rgb(61,65,67);"/>
                    <path d="M33.5,75L33.5,77" style="fill:white;stroke-width:1px;stroke-linecap:butt;stroke:rgb(61,65,67);"/>
                    <path d="M29.5,75L29.5,77" style="fill:white;stroke-width:1px;stroke-linecap:butt;stroke:rgb(61,65,67);"/>
                    <path d="M35.5,74L35.5,77" style="fill:white;stroke-width:1px;stroke-linecap:butt;stroke:rgb(61,65,67);"/>
                </g>
            </g>
            <g>
                <path d="M37.7071,57.318L32.2236,51.8853L30.8093,53.2864L36.2929,58.7191L37.7071,57.318Z" style="fill:rgb(212,212,212);stroke-width:1px;stroke:rgb(61,65,67);"/>
                <circle cx="29.5" cy="50.5" r="4.5" style="fill:white;stroke-width:1px;stroke:rgb(61,65,67);"/>
            </g>
            <path d="M29.9836,37L24.9836,32C23.9532,30.1005 25.3733,29.5151 26.9836,31L28.5,32.5L27.5,28C27.1735,26.5116 29.0687,25.7634 29.5,28L29.9836,31L30.9836,31L30.9836,27C30.97,25.4198 32.9794,25.5529 32.9836,27L32.9836,31L33.9836,31L33.9836,28C33.9976,26.5186 36.0103,26.0852 35.9836,28L35.9836,31.8828L34.9836,37L29.9836,37Z" style="fill:white;stroke-width:1px;stroke:rgb(61,65,67);"/>
            <path d="M28,4.5L28,14L30.2576,11.8806L33,16.5L35,15.5L32.2576,10.8806L35,10.5L28,4.5Z" style="fill:white;stroke-width:1px;stroke:rgb(61,65,67);"/>
        </g>
        <g>
            <clipPath id="tag3">
                <rect x="122.268" y="298.268" width="17.4641" height="33.943"/>
            </clipPath>
            <g clip-path="url(#tag3)">
                <g opacity="0.5">
                    <path d="M138,306.3C138,302.821 135.179,300 131.7,300L130.3,300C126.821,300 124,302.821 124,306.3L124,316.7C124,320.179 126.821,323 130.3,323L131.7,323C135.179,323 138,320.179 138,316.7L138,306.3Z" style="fill:white;stroke-width:1px;stroke:rgb(131,136,139);"/>
                    <g>
                        <clipPath id="tag4">
                            <path d="M138,306.3C138,302.821 135.179,300 131.7,300L130.3,300C126.821,300 124,302.821 124,306.3L124,316.7C124,320.179 126.821,323 130.3,323L131.7,323C135.179,323 138,320.179 138,316.7L138,306.3Z"/>
                        </clipPath>
                        <g clip-path="url(#tag4)">
                            <path d="M130,297.231C130,296.499 129.407,295.906 128.675,295.906L122.489,295.906C121.757,295.906 121.164,296.499 121.164,297.231L121.164,308.675C121.164,309.407 121.757,310 122.489,310L128.675,310C129.407,310 130,309.407 130,308.675L130,297.231Z" style="fill:rgb(189,192,193);stroke-width:1px;stroke:rgb(131,136,139);"/>
                            <path d="M141,297.406C141,296.577 140.328,295.906 139.5,295.906L132.5,295.906C131.672,295.906 131,296.577 131,297.406L131,308.5C131,309.328 131.672,310 132.5,310L139.5,310C140.328,310 141,309.328 141,308.5L141,297.406Z" style="fill:white;stroke-width:1px;stroke:rgb(131,136,139);"/>
                            <path d="M132,304.3C132,304.134 131.866,304 131.7,304L130.3,304C130.134,304 130,304.134 130,304.3L130,310.7C130,310.866 130.134,311 130.3,311L131.7,311C131.866,311 132,310.866 132,310.7L132,304.3Z" style="fill:rgb(189,192,193);stroke-width:1px;stroke:rgb(131,136,139);"/>
                        </g>
                    </g>
                    <g>
                        <path d="M128.42,331.269C128.26,331.542 128.039,331.767 127.756,331.945C127.473,332.122 127.082,332.211 126.584,332.211C125.832,332.211 125.266,331.984 124.885,331.53C124.504,331.076 124.313,330.403 124.313,329.511C124.313,328.619 124.502,327.943 124.88,327.482C125.257,327.021 125.814,326.791 126.55,326.791C127.393,326.791 127.993,327.104 128.352,327.729L127.663,328.148C127.536,327.95 127.387,327.795 127.216,327.685C127.045,327.574 126.82,327.519 126.54,327.519C126.049,327.519 125.699,327.697 125.493,328.053C125.286,328.41 125.183,328.902 125.183,329.53C125.183,330.009 125.231,330.382 125.329,330.648C125.427,330.915 125.579,331.12 125.786,331.264C125.992,331.407 126.255,331.479 126.574,331.479C126.848,331.479 127.071,331.427 127.243,331.325C127.416,331.222 127.578,331.063 127.731,330.849L128.42,331.269Z" style="fill:rgb(132,137,140);fill-rule:nonzero;"/>
                        <path d="M132.16,332.06C131.835,332.16 131.512,332.211 131.193,332.211C130.801,332.211 130.507,332.074 130.281,331.801C130.055,331.527 129.992,331.098 129.992,330.512L129.992,327.641L129.259,327.641L129.259,326.938L129.992,326.938L129.992,325.512L130.832,325.512L130.832,326.938L131.998,326.938L131.998,327.641L130.832,327.641L130.832,330.351C130.832,330.764 130.823,331.06 130.906,331.239C130.989,331.418 131.07,331.508 131.252,331.508C131.499,331.508 131.729,331.462 131.94,331.371L132.16,332.06Z" style="fill:rgb(132,137,140);fill-rule:nonzero;"/>
                        <path d="M135.93,327.768C135.839,327.729 135.708,327.709 135.539,327.709C135.288,327.709 135.047,327.767 134.814,327.882C134.581,327.998 134.31,328.21 134.001,328.52L134.001,332.06L133.161,332.06L133.161,326.938L134.001,326.938L134.001,327.768C134.235,327.53 134.482,327.319 134.741,327.135C135,326.951 135.287,326.859 135.603,326.859C135.814,326.859 135.983,326.894 136.11,326.962L135.93,327.768Z" style="fill:rgb(132,137,140);fill-rule:nonzero;"/>
                        <rect x="137.16" y="324.789" width="0.839844" height="7.27051" style="fill:rgb(132,137,140);fill-rule:nonzero;"/>
                    </g>
                </g>
            </g>
        </g>
        <path d="M129,154C129,151.791 127.209,150 125,150L108,150C105.791,150 104,151.791 104,154L104,171C104,173.209 105.791,175 108,175L125,175C127.209,175 129,173.209 129,171L129,154Z" style="fill:rgb(132,137,140);stroke-width:1px;stroke-linecap:butt;stroke:rgb(61,65,67);"/>
        <g>
            <path d="M123,289C122.862,288.998 122.728,288.972 122.602,288.917C122.251,288.765 122.014,288.416 122.001,288.034C121.997,287.932 122.009,287.829 122.037,287.73C122.081,287.575 122.162,287.437 122.269,287.317C123.268,286.284 124.284,285.268 125.317,284.269C125.437,284.162 125.575,284.081 125.73,284.037C125.829,284.009 125.932,283.997 126.034,284.001C126.404,284.013 126.744,284.236 126.903,284.571C126.962,284.695 126.992,284.828 126.999,284.966C127.017,285.988 127.017,287.012 126.999,288.034C126.994,288.137 126.977,288.238 126.942,288.335C126.846,288.605 126.634,288.825 126.367,288.93C126.26,288.972 126.149,288.994 126.034,288.999C125.023,289.017 124.011,289 123,289ZM152,289C151.862,288.998 151.728,288.972 151.602,288.917C151.251,288.765 151.014,288.416 151.001,288.034C150.997,287.932 151.009,287.829 151.037,287.73C151.081,287.575 151.162,287.437 151.269,287.317C152.268,286.284 153.284,285.268 154.317,284.269C154.437,284.162 154.575,284.081 154.73,284.037C154.829,284.009 154.932,283.997 155.034,284.001C155.404,284.013 155.744,284.236 155.903,284.571C155.962,284.695 155.992,284.828 155.999,284.966C156.017,285.988 156.017,287.012 155.999,288.034C155.994,288.137 155.977,288.238 155.942,288.335C155.846,288.605 155.634,288.825 155.367,288.93C155.26,288.972 155.149,288.994 155.034,288.999C154.023,289.017 153.011,289 152,289ZM94,289C93.8625,288.998 93.7281,288.972 93.6016,288.917C93.2513,288.765 93.0136,288.416 93.0006,288.034C92.9971,287.932 93.0094,287.829 93.0371,287.73C93.0806,287.575 93.1615,287.437 93.2692,287.317C94.2678,286.284 95.2842,285.268 96.3174,284.269C96.4367,284.162 96.575,284.081 96.7302,284.037C96.8289,284.009 96.9317,283.997 97.0341,284.001C97.4038,284.013 97.7442,284.236 97.9031,284.571C97.9623,284.695 97.9924,284.828 97.9994,284.966C98.0169,285.988 98.0169,287.012 97.9994,288.034C97.9941,288.137 97.9768,288.238 97.9423,288.335C97.8462,288.605 97.6336,288.825 97.3669,288.93C97.2601,288.972 97.1485,288.994 97.0341,288.999C96.0229,289.017 95.0114,289 94,289ZM65,289C64.8625,288.998 64.7281,288.972 64.6016,288.917C64.2513,288.765 64.0136,288.416 64.0006,288.034C63.9971,287.932 64.0094,287.829 64.0371,287.73C64.0806,287.575 64.1615,287.437 64.2692,287.317C65.2678,286.284 66.2842,285.268 67.3174,284.269C67.4367,284.162 67.575,284.081 67.7302,284.037C67.8289,284.009 67.9317,283.997 68.0341,284.001C68.4038,284.013 68.7442,284.236 68.9031,284.571C68.9623,284.695 68.9924,284.828 68.9994,284.966C69.0169,285.988 69.0169,287.012 68.9994,288.034C68.9941,288.137 68.9768,288.238 68.9423,288.335C68.8462,288.605 68.6336,288.825 68.3669,288.93C68.2601,288.972 68.1485,288.994 68.0341,288.999C67.0229,289.017 66.0114,289 65,289Z" style="fill:rgb(132,137,140);"/>
            <path d="M116.5,272C120.09,272 123,274.91 123,278.5C123,282.09 120.09,285 116.5,285C112.91,285 110,282.09 110,278.5C110,274.91 112.91,272 116.5,272ZM145.5,270.5L147.516,275.725L153.108,276.028L148.763,279.56L150.202,284.972L145.5,281.931L140.798,284.972L142.237,279.56L137.892,276.028L143.484,275.725L145.5,270.5ZM87.5,271.65L94.0147,276.383L91.5263,284.042L83.4737,284.042L80.9853,276.383L87.5,271.65ZM65,274L52,274L52,283L65,283L65,274Z" style="fill:rgb(255,226,153);stroke-width:1px;stroke:rgb(61,65,67);"/>
        </g>
        <g>
            <path d="M79,245.078C87.9442,244.052 93.2775,243.026 95,242C93.9983,247.333 93.3801,252.667 93.1453,258C93.5626,257.369 89.7979,256.738 81.8514,256.107C83.8826,252.431 82.9321,248.755 79,245.078Z" style="fill:rgb(167,207,163);fill-rule:nonzero;stroke-width:1px;stroke-linecap:butt;stroke:rgb(167,207,163);"/>
            <path d="M79,245.078C87.9442,244.052 93.2775,243.026 95,242C93.9983,247.333 93.3801,252.667 93.1453,258C93.5626,257.369 89.7979,256.738 81.8514,256.107C83.8826,252.431 82.9321,248.755 79,245.078Z" style="fill:rgb(167,207,163);fill-rule:nonzero;stroke-width:1px;stroke-linecap:butt;stroke-dasharray:0.3,1,1.7,0;stroke:rgb(61,65,67);"/>
        </g>
        <g>
            <path d="M58.5,257.5L51.5,253.5L51.5,245.5L58.5,249.5L58.5,257.5Z" style="fill:rgb(167,207,163);stroke-width:1px;stroke-linecap:butt;stroke:rgb(167,207,163);"/>
            <path d="M58.5,257.5L51.5,253.5L51.5,245.5L58.5,249.5L58.5,257.5Z" style="fill:rgb(167,207,163);stroke-width:1px;stroke-linecap:butt;stroke-dasharray:0.6,1,1.4,0;stroke:rgb(61,65,67);"/>
            <path d="M58.5,257.5L65.5,253.5L65.5,245.5L58.5,249.5L58.5,257.5Z" style="fill:rgb(167,207,163);stroke-width:1px;stroke-linecap:butt;stroke:rgb(167,207,163);"/>
            <path d="M58.5,257.5L65.5,253.5L65.5,245.5L58.5,249.5L58.5,257.5Z" style="fill:rgb(167,207,163);stroke-width:1px;stroke-linecap:butt;stroke-dasharray:0.6,1,1.4,0;stroke:rgb(61,65,67);"/>
            <path d="M58.5455,241.474L51.5,245.5L58.5,249.5L65.5,245.5L58.5455,241.474Z" style="fill:rgb(167,207,163);stroke-width:1px;stroke-linecap:butt;stroke:rgb(167,207,163);"/>
            <path d="M58.5455,241.474L51.5,245.5L58.5,249.5L65.5,245.5L58.5455,241.474Z" style="fill:rgb(167,207,163);stroke-width:1px;stroke-linecap:butt;stroke-dasharray:0.6,1,1.4,0;stroke:rgb(61,65,67);"/>
        </g>
        <g>
            <path d="M95,214L90,214L82,227L87,227L95,214Z" style="fill:rgb(167,207,163);stroke-width:1px;stroke-linecap:butt;stroke:rgb(167,207,163);"/>
            <path d="M95,214L90,214L82,227L87,227L95,214Z" style="fill:rgb(167,207,163);stroke-width:1px;stroke-linecap:butt;stroke-dasharray:2,1,0,0;stroke:rgb(61,65,67);"/>
            <rect x="82" y="214" width="5" height="13" style="fill:rgb(167,207,163);stroke-width:1px;stroke:rgb(61,65,67);"/>
        </g>
        <g>
            <rect x="51" y="218" width="3" height="5" style="fill:rgb(167,207,163);stroke-width:1px;stroke:rgb(61,65,67);"/>
            <path d="M61,216L61,213L56,213L56,216L61,216Z" style="fill:rgb(167,207,163);stroke-width:1px;stroke:rgb(61,65,67);"/>
            <rect x="63" y="218" width="3" height="5" style="fill:rgb(167,207,163);stroke-width:1px;stroke-linecap:butt;stroke:rgb(167,207,163);"/>
            <rect x="63" y="218" width="3" height="5" style="fill:rgb(167,207,163);stroke-width:1px;stroke-linecap:butt;stroke-dasharray:2,1,0,0;stroke:rgb(61,65,67);"/>
            <path d="M61,228L61,225L56,225L56,228L61,228Z" style="fill:rgb(167,207,163);stroke-width:1px;stroke-linecap:butt;stroke:rgb(167,207,163);"/>
            <path d="M61,228L61,225L56,225L56,228L61,228Z" style="fill:rgb(167,207,163);stroke-width:1px;stroke-linecap:butt;stroke-dasharray:2,1,0,0;stroke:rgb(61,65,67);"/>
        </g>
        <g>
            <path d="M86.5849,185.157L80.0849,196.415L84.4151,198.915L90.9151,187.657L86.5849,185.157Z" style="fill:rgb(167,207,163);stroke-width:1px;stroke-linecap:butt;stroke:rgb(167,207,163);"/>
            <path d="M86.5849,185.157L80.0849,196.415L84.4151,198.915L90.9151,187.657L86.5849,185.157Z" style="fill:rgb(167,207,163);stroke-width:1px;stroke-linecap:butt;stroke-dasharray:2,1,0,0;stroke:rgb(61,65,67);"/>
            <rect x="81" y="193" width="13" height="5" style="fill:rgb(167,207,163);stroke-width:1px;stroke:rgb(61,65,67);"/>
        </g>
        <g>
            <rect x="55" y="188" width="10" height="10" style="fill:rgb(167,207,163);stroke-width:1px;stroke-linecap:butt;stroke:rgb(167,207,163);"/>
            <rect x="55" y="188" width="10" height="10" style="fill:rgb(167,207,163);stroke-width:1px;stroke-linecap:butt;stroke-dasharray:2,1,0,0;stroke:rgb(61,65,67);"/>
            <rect x="52" y="185" width="6" height="6" style="fill:rgb(167,207,163);stroke-width:1px;stroke:rgb(61,65,67);"/>
        </g>
        <g>
            <path d="M83.3493,164.407L86,155L87.9422,155.5L85.5,164.5L83.3493,164.407Z" style="fill:rgb(102,114,204);stroke-width:1px;stroke:rgb(61,65,67);"/>
            <path d="M81.7702,170.041L83.3181,164.508L85.2733,165.053C83.3238,167.851 85.1768,169.335 81.7702,170.041Z" style="fill:rgb(212,212,212);stroke-width:1px;stroke:rgb(61,65,67);"/>
            <path d="M86,170.5L88.5,170.5" style="fill:none;stroke-width:1px;stroke:rgb(132,137,140);"/>
            <path d="M91,170.5L93.5,170.5" style="fill:none;stroke-width:1px;stroke:rgb(132,137,140);"/>
        </g>
        <g>
            <path d="M54,165L64,155C64.9813,155.247 65.648,155.914 66,157L56,167L54,165Z" style="fill:rgb(224,82,84);stroke-width:1px;stroke:rgb(61,65,67);"/>
            <path d="M52,169L54,165C54.9146,165.388 55.5521,166.087 56,167L52,169Z" style="fill:rgb(212,212,212);stroke-width:1px;stroke:rgb(61,65,67);"/>
            <path d="M51.3713,170.416C51.9245,170.53 52.4045,170.788 53.0307,170.758C56.933,170.569 56.5169,168.581 59.4265,168.485C62.5699,168.38 62.7603,169.773 65.104,169.757" style="fill:none;stroke-width:1px;stroke:rgb(132,137,140);"/>
        </g>
        <g id="on">
            <g>
                <path d="M116.5,144C116.5,144 116.522,137.176 116.5,133.585C116.479,129.937 117.859,126.283 120.642,123.5" style="fill:none;stroke-width:1px;stroke:rgb(61,65,67);"/>
                <path d="M114,138L114,136L117,136L117,131L114,131L114,129L119,129L119,138L114,138Z" style="fill:rgb(224,82,84);stroke-width:1px;stroke:rgb(61,65,67);"/>
            </g>
            <g>
                <path d="M145.5,123.085C145.5,123.085 145.479,129.909 145.5,133.5C145.522,137.148 144.141,140.802 141.358,143.585" style="fill:none;stroke-width:1px;stroke:rgb(61,65,67);"/>
                <path d="M148,129L148,131L145,131L145,136L148,136L148,138L143,138L143,129L148,129Z" style="fill:rgb(224,82,84);stroke-width:1px;stroke:rgb(61,65,67);"/>
            </g>
            <g>
                <path d="M145.5,115L145.5,105L153.642,97" style="fill:none;stroke-width:1px;stroke:rgb(61,65,67);"/>
                <rect x="143" y="102" width="5" height="5" style="fill:rgb(224,82,84);stroke-width:1px;stroke:rgb(61,65,67);"/>
            </g>
            <g>
                <path d="M120.142,114.5C114.619,108.977 114.619,100.023 120.142,94.5" style="fill:none;stroke-width:1px;stroke:rgb(61,65,67);"/>
                <circle cx="116.5" cy="104.5" r="3" style="fill:rgb(224,82,84);stroke-width:1px;stroke:rgb(61,65,67);"/>
            </g>
            <g>
                <path d="M119,85.5C115,79.9772 115,71.0228 119,65.5" style="fill:none;stroke-width:1px;stroke:rgb(61,65,67);"/>
                <path d="M120.01,75.5255L116.475,71.9899L112.939,75.5255L116.475,79.061L120.01,75.5255Z" style="fill:rgb(224,82,84);stroke-width:1px;stroke:rgb(61,65,67);"/>
            </g>
            <g>
                <circle cx="145.5" cy="75.5" r="1.5" style="fill:rgb(61,65,67);"/>
                <path d="M139.5,81.5L151.5,69.5" style="fill:none;stroke-width:1px;stroke:rgb(61,65,67);"/>
                <path d="M151.5,67.5L151.5,71.5" style="fill:none;stroke-width:1px;stroke:rgb(61,65,67);"/>
                <path d="M139.5,79.5L139.5,83.5" style="fill:none;stroke-width:1px;stroke:rgb(61,65,67);"/>
                <path d="M149.5,69.5L153.5,69.5" style="fill:none;stroke-width:1px;stroke:rgb(61,65,67);"/>
                <path d="M137.5,81.5L141.5,81.5" style="fill:none;stroke-width:1px;stroke:rgb(61,65,67);"/>
            </g>
            <g id="off">
                <path d="M138.362,52.8904C137.811,51.581 137.5,50.1425 137.5,48.6328L137.507,48.6328C137.507,43.5786 141.585,39.4993 146.583,39.4993C150.687,39.4993 153.625,42.8412 153.625,46.875C153.625,49.9816 151.107,52.5 148,52.5C145.515,52.5 143.5,50.4853 143.5,48C143.5,46.0118 145.112,44.4 147.1,44.4C148.691,44.4 149.98,45.6894 149.98,47.28C149.98,48.5525 148.948,49.584 147.676,49.584C146.658,49.584 145.833,48.7588 145.833,47.7408" style="fill:none;stroke-width:1px;stroke:rgb(132,137,140);"/>
            </g>
            <g>
                <path d="M106.754,70.4954C106.59,70.0275 106.5,69.5242 106.5,69C106.5,67.0118 108.112,65.4 110.1,65.4C111.691,65.4 112.98,66.6894 112.98,68.28C112.98,69.5525 111.948,70.584 110.676,70.584C109.658,70.584 108.833,69.7588 108.833,68.7408L108.833,68.7409C108.833,67.9265 109.493,67.2663 110.307,67.2663" style="fill:none;stroke-width:1px;stroke:rgb(132,137,140);"/>
                <path d="M135.754,99.4954C135.59,99.0275 135.5,98.5242 135.5,98C135.5,96.0118 137.112,94.4 139.1,94.4C140.691,94.4 141.98,95.6894 141.98,97.28C141.98,98.5525 140.948,99.584 139.676,99.584C138.658,99.584 137.833,98.7588 137.833,97.7408L137.833,97.7409C137.833,96.9265 138.493,96.2663 139.307,96.2663" style="fill:none;stroke-width:1px;stroke:rgb(132,137,140);"/>
                <path d="M106.754,99.4954C106.59,99.0275 106.5,98.5242 106.5,98C106.5,96.0118 108.112,94.4 110.1,94.4C111.691,94.4 112.98,95.6894 112.98,97.28C112.98,98.5525 111.948,99.584 110.676,99.584C109.658,99.584 108.833,98.7588 108.833,97.7408L108.833,97.7409C108.833,96.9265 109.493,96.2663 110.307,96.2663" style="fill:none;stroke-width:1px;stroke:rgb(132,137,140);"/>
                <path d="M135.754,128.495C135.59,128.028 135.5,127.524 135.5,127C135.5,125.012 137.112,123.4 139.1,123.4C140.691,123.4 141.98,124.689 141.98,126.28C141.98,127.552 140.948,128.584 139.676,128.584C138.658,128.584 137.833,127.759 137.833,126.741L137.833,126.741C137.833,125.927 138.493,125.266 139.307,125.266" style="fill:none;stroke-width:1px;stroke:rgb(132,137,140);"/>
                <path d="M106.754,128.495C106.59,128.028 106.5,127.524 106.5,127C106.5,125.012 108.112,123.4 110.1,123.4C111.691,123.4 112.98,124.689 112.98,126.28C112.98,127.552 111.948,128.584 110.676,128.584C109.658,128.584 108.833,127.759 108.833,126.741L108.833,126.741C108.833,125.927 109.493,125.266 110.307,125.266" style="fill:none;stroke-width:1px;stroke:rgb(132,137,140);"/>
            </g>
        </g>
        <g id="off1">
            <g>
                <path d="M76,133.5L99,133.5" style="fill:none;stroke-width:1px;stroke-linecap:butt;stroke-dasharray:1,1;stroke:rgb(132,137,140);"/>
                <path d="M87.5,122L87.5,145" style="fill:none;stroke-width:1px;stroke-linecap:butt;stroke-dasharray:1,1;stroke:rgb(132,137,140);"/>
                <path d="M91.3394,143.5C85.5535,137.977 85.5535,129.023 91.3394,123.5" style="fill:none;stroke-width:1px;stroke:rgb(61,65,67);"/>
                <path d="M91.0101,133.525L87.4745,129.99L83.939,133.525L87.4745,137.061L91.0101,133.525Z" style="fill:rgb(224,82,84);stroke-width:1px;stroke:rgb(61,65,67);"/>
            </g>
            <g>
                <path d="M58.5,144C58.5,144 58.5217,137.176 58.5003,133.585C58.4785,129.937 59.8591,126.283 62.6421,123.5" style="fill:none;stroke-width:1px;stroke:rgb(61,65,67);"/>
                <path d="M63.0255,136L58.5,130.475L53.9745,136L63.0255,136Z" style="fill:rgb(224,82,84);stroke-width:1px;stroke:rgb(61,65,67);"/>
            </g>
            <g>
                <path d="M87.5,115L87.5,104.5L96,96" style="fill:none;stroke-width:1px;stroke:rgb(61,65,67);"/>
                <rect x="85" y="102" width="5" height="5" style="fill:rgb(224,82,84);stroke-width:1px;stroke:rgb(61,65,67);"/>
            </g>
            <g>
                <path d="M62.1421,114.5C56.6193,108.977 56.6193,100.023 62.1421,94.5" style="fill:none;stroke-width:1px;stroke:rgb(61,65,67);"/>
                <circle cx="58.5" cy="104.5" r="3" style="fill:rgb(224,82,84);stroke-width:1px;stroke:rgb(61,65,67);"/>
            </g>
            <g>
                <path d="M60,71L63,68C64.3497,68.4634 65.3497,69.4634 66,71L63,74L60,71Z" style="fill:rgb(224,82,84);stroke-width:1px;stroke:rgb(61,65,67);"/>
                <path d="M51,83L54,73C56.4412,73.0015 58.4697,72.3779 60,71C61.2626,71.5632 62.2626,72.5632 63,74C61.4672,75.512 60.853,77.5416 61,80L51,83Z" style="fill:rgb(212,212,212);stroke-width:1px;stroke:rgb(61,65,67);"/>
                <path d="M57,77L51,83" style="fill:none;stroke-width:1px;stroke:rgb(61,65,67);"/>
                <circle cx="57" cy="77" r="1" style="fill:none;stroke-width:1px;stroke:rgb(61,65,67);"/>
            </g>
            <g id="off2">
                <path d="M80.3623,81.8904C79.8114,80.581 79.5,79.1425 79.5,77.6328L79.5069,77.6328C79.5069,72.5786 83.5852,68.4993 88.5826,68.4993C92.6874,68.4993 95.625,71.8412 95.625,75.875C95.625,78.9816 93.1066,81.5 90,81.5C87.5147,81.5 85.5,79.4853 85.5,77C85.5,75.0118 87.1118,73.4 89.1,73.4C90.6906,73.4 91.98,74.6894 91.98,76.28C91.98,77.5525 90.9485,78.584 89.676,78.584C88.658,78.584 87.8328,77.7588 87.8328,76.7408" style="fill:none;stroke-width:1px;stroke:rgb(61,65,67);"/>
            </g>
        </g>
        <g>
            <path d="M65.9835,53.5693L59.2071,46.7929L57.7929,48.2071L64.5693,54.9835L65.9835,53.5693Z" style="fill:rgb(212,212,212);stroke-width:1px;stroke:rgb(61,65,67);"/>
            <circle cx="56.5" cy="45.5" r="5.65685" style="fill:white;stroke-width:1px;stroke:rgb(61,65,67);"/>
        </g>
        <path d="M85,25L80,19C78.9696,17.1005 80.3897,16.5151 82,18L84,20L82,13C81.6355,11.6472 83.619,11.4435 84,13L85,17L86,17L86,12C85.9864,10.4198 87.9958,10.5529 88,12L88,17L89,17L89,13C89.014,11.5186 91.0267,11.0852 91,13L91,18L93,15C93.8183,13.8248 94.6116,16.0516 94,17C92.2465,19.719 91.3951,22.3754 91,25L85,25Z" style="fill:white;stroke-width:1px;stroke:rgb(61,65,67);"/>
        <g>
            <rect x="80" y="44" width="15" height="5" style="fill:white;stroke-width:1px;stroke:rgb(61,65,67);"/>
            <g>
                <path d="M85.5,47L85.5,50" style="fill:white;stroke-width:1px;stroke-linecap:butt;stroke:rgb(61,65,67);"/>
                <path d="M81.5,47L81.5,50" style="fill:white;stroke-width:1px;stroke-linecap:butt;stroke:rgb(61,65,67);"/>
                <path d="M87.5,48L87.5,50" style="fill:white;stroke-width:1px;stroke-linecap:butt;stroke:rgb(61,65,67);"/>
                <path d="M83.5,48L83.5,50" style="fill:white;stroke-width:1px;stroke-linecap:butt;stroke:rgb(61,65,67);"/>
                <path d="M89.5,47L89.5,50" style="fill:white;stroke-width:1px;stroke-linecap:butt;stroke:rgb(61,65,67);"/>
                <path d="M91.5,48L91.5,50" style="fill:white;stroke-width:1px;stroke-linecap:butt;stroke:rgb(61,65,67);"/>
                <path d="M93.5,47L93.5,50" style="fill:white;stroke-width:1px;stroke-linecap:butt;stroke:rgb(61,65,67);"/>
            </g>
        </g>
        <path d="M55,10L55,21L57.5,19L60.213,25L62.213,24L59.5,18L63,18L55,10Z" style="fill:white;stroke-width:1px;stroke:rgb(61,65,67);"/>
    </g>
</svg>
